<?xml version="1.0" encoding="UTF-8" standalone="no"?>
<!DOCTYPE svg PUBLIC "-//W3C//DTD SVG 1.1//EN"
 "http://www.w3.org/Graphics/SVG/1.1/DTD/svg11.dtd">
<!-- Generated by graphviz version 2.40.1 (20161225.0304)
 -->
<!-- Title: %3 Pages: 1 -->
<svg width="219pt" height="247pt"
 viewBox="0.00 0.00 219.23 246.88" xmlns="http://www.w3.org/2000/svg" xmlns:xlink="http://www.w3.org/1999/xlink">
<g id="graph0" class="graph" transform="scale(1 1) rotate(0) translate(4 242.8772)">
<title>%3</title>
<polygon fill="#ffffff" stroke="transparent" points="-4,4 -4,-242.8772 215.2254,-242.8772 215.2254,4 -4,4"/>
<!-- A -->
<g id="node1" class="node">
<title>A</title>
<polygon fill="#d3d3d3" stroke="#000000" points="48.9767,-223.1285 25.9767,-223.1285 25.9767,-205.1285 48.9767,-205.1285 48.9767,-223.1285"/>
<text text-anchor="middle" x="37.4767" y="-211.9285" font-family="Times,serif" font-size="9.00" fill="#000000">A</text>
</g>
<!-- A XOR B -->
<g id="node4" class="node">
<title>A XOR B</title>
<ellipse fill="#add8e6" stroke="#000000" cx="37.4767" cy="-115.9031" rx="37.4533" ry="37.4533"/>
<text text-anchor="middle" x="37.4767" y="-113.7031" font-family="Times,serif" font-size="9.00" fill="#000000">A XOR B</text>
</g>
<!-- A&#45;&gt;A XOR B -->
<g id="edge2" class="edge">
<title>A&#45;&gt;A XOR B</title>
<path fill="none" stroke="#00ff00" stroke-width=".5148" d="M37.4767,-205.0637C37.4767,-195.4797 37.4767,-179.6001 37.4767,-163.8763"/>
<polygon fill="#00ff00" stroke="#00ff00" stroke-width=".5148" points="40.9768,-163.6337 37.4767,-153.6337 33.9768,-163.6338 40.9768,-163.6337"/>
</g>
<!-- B -->
<g id="node2" class="node">
<title>B</title>
<polygon fill="#d3d3d3" stroke="#000000" points="143.9767,-223.1285 120.9767,-223.1285 120.9767,-205.1285 143.9767,-205.1285 143.9767,-223.1285"/>
<text text-anchor="middle" x="132.4767" y="-211.9285" font-family="Times,serif" font-size="9.00" fill="#000000">B</text>
</g>
<!-- &#45;3 -->
<g id="node3" class="node">
<title>&#45;3</title>
<polygon fill="#d3d3d3" stroke="#000000" points="102.4767,-223.1285 78.4767,-223.1285 78.4767,-205.1285 102.4767,-205.1285 102.4767,-223.1285"/>
<text text-anchor="middle" x="90.4767" y="-211.9285" font-family="Times,serif" font-size="9.00" fill="#000000">&#45;3</text>
</g>
<!-- &#45;3&#45;&gt;A XOR B -->
<g id="edge3" class="edge">
<title>&#45;3&#45;&gt;A XOR B</title>
<path fill="none" stroke="#ff0000" stroke-width=".3792" d="M85.5855,-205.0637C79.7808,-194.3058 69.6959,-175.6154 60.2543,-158.117"/>
<polygon fill="#ff0000" stroke="#ff0000" stroke-width=".3792" points="63.2304,-156.2621 55.4016,-149.1235 57.07,-159.5861 63.2304,-156.2621"/>
</g>
<!-- 213 -->
<g id="node5" class="node">
<title>213</title>
<ellipse fill="#ffffff" stroke="#000000" cx="69.4767" cy="-21.2132" rx="21.4286" ry="21.4286"/>
<text text-anchor="middle" x="69.4767" y="-19.0132" font-family="Times,serif" font-size="9.00" fill="#000000">213</text>
</g>
<!-- &#45;3&#45;&gt;213 -->
<g id="edge4" class="edge">
<title>&#45;3&#45;&gt;213</title>
<path fill="none" stroke="#ff0000" stroke-width=".4021" stroke-dasharray="1,5" d="M90.5976,-204.8552C90.755,-182.8077 90.398,-125.5743 83.4767,-78.4264 82.1743,-69.5547 80.1215,-60.048 77.9853,-51.3822"/>
<polygon fill="#ff0000" stroke="#ff0000" stroke-width=".4021" points="81.3698,-50.4902 75.4791,-41.684 74.5925,-52.2417 81.3698,-50.4902"/>
</g>
<!-- A XOR B&#45;&gt;213 -->
<g id="edge1" class="edge">
<title>A XOR B&#45;&gt;213</title>
<path fill="none" stroke="#ff0000" stroke-width=".276" stroke-dasharray="1,5" d="M49.4833,-80.3747C52.7393,-70.7401 56.231,-60.408 59.3706,-51.1175"/>
<polygon fill="#ff0000" stroke="#ff0000" stroke-width=".276" points="62.7257,-52.1217 62.6115,-41.5275 56.0941,-49.8805 62.7257,-52.1217"/>
</g>
<!-- 2662 -->
<g id="node6" class="node">
<title>2662</title>
<ellipse fill="#ffffff" stroke="#000000" cx="186.4767" cy="-214.1285" rx="25" ry="25"/>
<text text-anchor="middle" x="186.4767" y="-211.9285" font-family="Times,serif" font-size="9.00" fill="#000000">2662</text>
</g>
</g>
</svg>
